<?xml version="1.0" encoding="utf-8"?>
<!-- Generator: Adobe Illustrator 23.0.3, SVG Export Plug-In . SVG Version: 6.00 Build 0)  -->
<svg version="1.1" id="Capa_1" xmlns="http://www.w3.org/2000/svg" xmlns:xlink="http://www.w3.org/1999/xlink" x="0px" y="0px"
	 viewBox="0 0 1200 1200" enable-background="new 0 0 1200 1200" xml:space="preserve">
<g>
	<path fill="#FFD028" d="M728.558,500.915c9.066-89.407,107.78-150.59,190.478-108.522c37.292,18.97,65.774,55.087,73.378,96.498
		c8.858,48.236-11.541,96.419-48.617,127.272c-30.85-23.904-72.161-34.3-112.664-25.535
		C828.062,534.703,779.48,496.94,728.558,500.915z"/>
	<path fill="#FFD028" d="M856.215,340.722c0-37.65,0-75.299,0-112.948c0-6.492,10.073-6.481,10.073,0c0,37.65,0,75.299,0,112.948
		C866.288,347.214,856.215,347.203,856.215,340.722z M736.821,394.349c4.589,4.589,11.714-2.531,7.122-7.122
		c-26.622-26.622-53.245-53.244-79.867-79.867c-4.59-4.589-11.714,2.531-7.122,7.122
		C683.576,341.105,710.198,367.727,736.821,394.349z M985.682,628.965c-4.589-4.589-11.714,2.531-7.122,7.122
		c26.622,26.622,53.245,53.244,79.867,79.867c4.589,4.589,11.714-2.531,7.122-7.122
		C1038.926,682.21,1012.304,655.588,985.682,628.965z M1145.135,506.621c-37.649,0-75.299,0-112.948,0
		c-6.481,0-6.492,10.072,0,10.072c37.65,0,75.299,0,112.948,0C1151.616,516.693,1151.627,506.621,1145.135,506.621z
		 M985.682,394.349c26.622-26.622,53.244-53.244,79.866-79.867c4.59-4.59-2.53-11.714-7.122-7.122
		c-26.622,26.622-53.244,53.245-79.867,79.867C973.97,391.816,981.09,398.94,985.682,394.349z M785.017,510.171
		c28.306,16.069,46.185,44.123,49.195,76.383c36.946-6.959,75.245,1.246,106.499,23.13c1.937,1.356,3.822,2.758,5.668,4.192
		c35.405-30.916,54.681-77.901,46.035-124.984c-7.604-41.412-36.087-77.528-73.378-96.498
		c-81.625-41.522-178.79,17.565-190.018,105.076C748.177,496.047,767.53,500.244,785.017,510.171z"/>
	<path fill="#AFECFD" d="M886.385,847.067l-14.297,3.054c3.077-21.765,1.533-44.375-5.242-66.28
		c-26.377-76.846-108.92-118.407-186.668-96.991c-3.134,0.863-6.404-1.581-6.376-4.856c0.38-44.038-23.811-86.634-66.039-102.873
		c-31.208-12.001-68.723-6.729-96.704,11.337c-2.878,1.858-6.406-0.074-7.399-3.01c-14.167-41.929-43.799-75.534-80.519-95.886
		l5.639-9.002c31.375-50.085,88.557-76.77,145.642-67.953c52.576,8.107,98.027,44.038,118.247,92.662
		c11.662-5.635,23.965-8.88,36.349-9.8c19.158-1.422,38.512,2.775,55.999,12.701c28.306,16.069,46.185,44.123,49.195,76.383
		c36.946-6.959,75.245,1.246,106.499,23.13c1.937,1.356,3.822,2.758,5.668,4.192c29.144,22.639,46.872,54.781,50.131,91.243
		C1002.432,771.372,955.089,832.397,886.385,847.067z"/>
	<path fill="#79E0FC" d="M872.088,850.121c-6.744,47.704-35.697,91.35-80.515,114.616c-20.839,10.817-40.358,10.04-63.365,10.139
		c-26.594,0.115-53.19,0.229-79.784,0.344c-47.649,0.206-95.298,0.411-142.947,0.616c-96.406,0.416-192.812,0.832-289.218,1.247
		c-22.982,0.099-42.35-0.635-63.867-9.298c-16.937-6.819-32.944-16.334-46.918-28.091c-23.627-19.879-42.091-46.353-50.692-76.146
		C30.122,778.135,104.993,717.385,184.276,711c2.898-0.233,6.177-3.087,4.856-6.375c-34.914-86.91,5.947-191.259,95.556-224.512
		c47.214-17.521,97.288-11.367,138.454,11.449c36.719,20.351,66.352,53.957,80.519,95.886c0.992,2.936,4.521,4.868,7.399,3.01
		c27.981-18.066,65.495-23.338,96.704-11.337c42.229,16.239,66.419,58.835,66.039,102.873c-0.028,3.275,3.242,5.719,6.376,4.856
		c77.748-21.416,160.291,20.145,186.668,96.991C873.621,805.746,875.165,828.356,872.088,850.121z"/>
	<path fill="#51D4ED" d="M411.494,976.242c-65.078,0.281-130.157,0.561-195.236,0.842c-22.982,0.099-42.35-0.635-63.867-9.298
		c-16.937-6.819-32.944-16.334-46.918-28.091c-23.627-19.879-42.091-46.353-50.692-76.146
		C30.122,778.135,104.993,717.385,184.276,711c2.898-0.233,6.177-3.087,4.856-6.375c-34.914-86.91,5.947-191.259,95.556-224.512
		c16.376-6.077,33.095-9.281,49.67-9.957C298.407,640.678,355.27,812.427,411.494,976.242z"/>
</g>
</svg>
